<svg width="25" height="24" viewBox="0 0 25 24" fill="none" xmlns="http://www.w3.org/2000/svg">
<g id="Close remove">
<path id="Vector" fill-rule="evenodd" clip-rule="evenodd" d="M13.9142 12.0002L19.2072 6.70725C19.5982 6.31625 19.5982 5.68425 19.2072 5.29325C18.8162 4.90225 18.1842 4.90225 17.7932 5.29325L12.5002 10.5862L7.20725 5.29325C6.81625 4.90225 6.18425 4.90225 5.79325 5.29325C5.40225 5.68425 5.40225 6.31625 5.79325 6.70725L11.0862 12.0002L5.79325 17.2933C5.40225 17.6842 5.40225 18.3162 5.79325 18.7072C5.98825 18.9022 6.24425 19.0002 6.50025 19.0002C6.75625 19.0002 7.01225 18.9022 7.20725 18.7072L12.5002 13.4143L17.7932 18.7072C17.9882 18.9022 18.2442 19.0002 18.5002 19.0002C18.7562 19.0002 19.0122 18.9022 19.2072 18.7072C19.5982 18.3162 19.5982 17.6842 19.2072 17.2933L13.9142 12.0002Z" fill="#FF0000"/>
</g>
</svg>
