<svg width="24" height="22" viewBox="0 0 24 22" fill="none" xmlns="http://www.w3.org/2000/svg">
<path d="M23.8764 16.9923L19.9145 21.105C19.8284 21.1943 19.7242 21.2655 19.6084 21.3142C19.4926 21.3629 19.3676 21.388 19.2414 21.3879H0.459952C0.370334 21.3879 0.28267 21.3626 0.207731 21.315C0.132791 21.2675 0.0738392 21.1997 0.0381187 21.1202C0.00239817 21.0406 -0.00853499 20.9527 0.00666254 20.8672C0.0218601 20.7817 0.0625262 20.7024 0.123665 20.639L4.08858 16.5263C4.17448 16.4372 4.27834 16.3661 4.39376 16.3175C4.5092 16.2688 4.63371 16.2436 4.75963 16.2434H23.5401C23.6297 16.2434 23.7173 16.2687 23.7923 16.3163C23.8672 16.3638 23.9261 16.4316 23.962 16.5111C23.9976 16.5907 24.0086 16.6786 23.9933 16.7641C23.9781 16.8496 23.9375 16.9289 23.8764 16.9923ZM19.9145 8.71054C19.8284 8.6212 19.7242 8.54997 19.6084 8.50129C19.4926 8.45263 19.3676 8.42753 19.2414 8.4276H0.459952C0.370334 8.4276 0.28267 8.45294 0.207731 8.50051C0.132791 8.54808 0.0738392 8.61579 0.0381187 8.69533C0.00239817 8.7749 -0.00853499 8.86282 0.00666254 8.94831C0.0218601 9.03377 0.0625262 9.1131 0.123665 9.17654L4.08858 13.2892C4.17448 13.3783 4.27834 13.4494 4.39376 13.4981C4.5092 13.5467 4.63371 13.572 4.75963 13.5721H23.5401C23.6297 13.5721 23.7173 13.5468 23.7923 13.4992C23.8672 13.4517 23.9261 13.384 23.962 13.3044C23.9976 13.2249 24.0086 13.1369 23.9933 13.0514C23.9781 12.966 23.9375 12.8867 23.8764 12.8232L19.9145 8.71054ZM0.459952 5.75639H19.2414C19.3676 5.75643 19.4926 5.73136 19.6084 5.68268C19.7242 5.63399 19.8284 5.56277 19.9145 5.47343L23.8764 1.36075C23.9375 1.29733 23.9781 1.218 23.9933 1.13252C24.0086 1.04703 23.9976 0.959115 23.962 0.879564C23.9261 0.800013 23.8672 0.732293 23.7923 0.684727C23.7173 0.637161 23.6297 0.611819 23.5401 0.611816H4.75963C4.63371 0.612024 4.5092 0.637243 4.39376 0.685913C4.27834 0.734584 4.17448 0.805669 4.08858 0.894768L0.124687 5.00745C0.0636074 5.0708 0.0229592 5.15005 0.00772717 5.23542C-0.00750485 5.32082 0.00334156 5.40867 0.0389361 5.48818C0.0745307 5.5677 0.133326 5.63541 0.208112 5.68305C0.282898 5.7307 0.370422 5.75617 0.459952 5.75639Z" fill="url(#paint0_linear_6380_24993)"/>
<defs>
<linearGradient id="paint0_linear_6380_24993" x1="2.02588" y1="21.8831" x2="21.0055" y2="-0.221718" gradientUnits="userSpaceOnUse">
<stop offset="0.08" stop-color="#9945FF"/>
<stop offset="0.3" stop-color="#8752F3"/>
<stop offset="0.5" stop-color="#5497D5"/>
<stop offset="0.6" stop-color="#43B4CA"/>
<stop offset="0.72" stop-color="#28E0B9"/>
<stop offset="0.97" stop-color="#19FB9B"/>
</linearGradient>
</defs>
</svg>
